<?xml version="1.0" encoding="UTF-8" standalone="no"?>
<svg width="317.5mm" height="18.7854mm"
 xmlns="http://www.w3.org/2000/svg" xmlns:xlink="http://www.w3.org/1999/xlink"  version="1.2" baseProfile="tiny">
<desc>Created by HiQPdf</desc>
<defs>
</defs>
<g fill="none" stroke="black" stroke-width="1" fill-rule="evenodd" stroke-linecap="square" stroke-linejoin="bevel" >

<g fill="#000000" fill-opacity="1" stroke="#000000" stroke-opacity="1" stroke-width="1" stroke-linecap="square" stroke-linejoin="miter" stroke-miterlimit="2" transform="matrix(1,0,0,1,0,0)"
>
</g>

<g fill="#000000" fill-opacity="1" stroke="#000000" stroke-opacity="1" stroke-width="1" stroke-linecap="square" stroke-linejoin="miter" stroke-miterlimit="2" transform="matrix(1,0,0,1,0,0)"
>
</g>

<g fill="#000000" fill-opacity="1" stroke="#000000" stroke-opacity="1" stroke-width="1" stroke-linecap="square" stroke-linejoin="miter" stroke-miterlimit="2" transform="matrix(1,0,0,1,0,0)"
>
</g>

<g fill="#000000" fill-opacity="1" stroke="#000000" stroke-opacity="1" stroke-width="1" stroke-linecap="square" stroke-linejoin="miter" stroke-miterlimit="2" transform="matrix(1,0,0,1,0,0)"
>
</g>

<g fill="#000000" fill-opacity="1" stroke="#000000" stroke-opacity="1" stroke-width="1" stroke-linecap="square" stroke-linejoin="miter" stroke-miterlimit="2" transform="matrix(1,0,0,1,8,8)"
>
</g>

<g fill="#000000" fill-opacity="1" stroke="#000000" stroke-opacity="1" stroke-width="1" stroke-linecap="square" stroke-linejoin="miter" stroke-miterlimit="2" transform="matrix(1,0,0,1,8,8)"
>
</g>

<g fill="#f9c74f" fill-opacity="1" stroke="none" transform="matrix(1,0,0,1,8,8)"
>
<path vector-effect="none" fill-rule="nonzero" d="M25.3536,2.07662 C28.2112,2.07662 30.552,14.2004 30.552,29.1644 L34.6864,29.1644 C34.6864,13.0705 30.5216,0 25.3536,0 C22.4352,0 19.7904,3.93948 18.088,10.0777 C16.3856,3.93948 13.7712,0 10.8224,0 C5.68482,0 1.48962,13.0705 1.48962,29.1644 L5.62402,29.1644 C5.62402,14.2004 7.93442,2.07662 10.8224,2.07662 C13.68,2.07662 16.0208,13.2843 16.0208,27.0877 L20.1552,27.0877 C20.1856,13.2843 22.496,2.07662 25.3536,2.07662 "/>
</g>

<g fill="#000000" fill-opacity="1" stroke="#000000" stroke-opacity="1" stroke-width="1" stroke-linecap="square" stroke-linejoin="miter" stroke-miterlimit="2" transform="matrix(1,0,0,1,8,8)"
>
</g>

<g fill="#2a76a8" fill-opacity="1" stroke="none" transform="matrix(1,0,0,1,8,8)"
>
<path vector-effect="none" fill-rule="nonzero" d="M7.24074,35.4859 C7.69819,33.5494 6.50634,31.6071 4.57868,31.1475 C2.65101,30.688 0.717496,31.8853 0.260047,33.8217 C-0.197402,35.7582 0.994445,37.7005 2.92211,38.1601 C4.84977,38.6196 6.78329,37.4223 7.24074,35.4859 "/>
</g>

<g fill="#000000" fill-opacity="1" stroke="#000000" stroke-opacity="1" stroke-width="1" stroke-linecap="square" stroke-linejoin="miter" stroke-miterlimit="2" transform="matrix(1,0,0,1,8,8)"
>
</g>

<g fill="#194379" fill-opacity="1" stroke="none" transform="matrix(1,0,0,1,8,8)"
>
<path vector-effect="none" fill-rule="nonzero" d="M15.1056,37.9121 C16.8944,37.0567 17.6543,34.9066 16.8027,33.1096 C15.9512,31.3127 13.8109,30.5494 12.0221,31.4048 C10.2333,32.2602 9.47348,34.4103 10.325,36.2073 C11.1765,38.0042 13.3169,38.7675 15.1056,37.9121 "/>
</g>

<g fill="#000000" fill-opacity="1" stroke="#000000" stroke-opacity="1" stroke-width="1" stroke-linecap="square" stroke-linejoin="miter" stroke-miterlimit="2" transform="matrix(1,0,0,1,8,8)"
>
</g>

<g fill="#194379" fill-opacity="1" stroke="none" transform="matrix(1,0,0,1,8,8)"
>
<path vector-effect="none" fill-rule="nonzero" d="M27.056,34.6614 C27.056,36.6464 25.4448,38.265 23.4688,38.265 C21.4928,38.265 19.8816,36.6464 19.8816,34.6614 C19.8816,32.6764 21.4928,31.0579 23.4688,31.0579 C25.4448,31.0579 27.056,32.6764 27.056,34.6614 "/>
</g>

<g fill="#000000" fill-opacity="1" stroke="#000000" stroke-opacity="1" stroke-width="1" stroke-linecap="square" stroke-linejoin="miter" stroke-miterlimit="2" transform="matrix(1,0,0,1,8,8)"
>
</g>

<g fill="#194379" fill-opacity="1" stroke="none" transform="matrix(1,0,0,1,8,8)"
>
<path vector-effect="none" fill-rule="nonzero" d="M36.7537,34.6614 C36.7537,36.6464 35.1425,38.265 33.1665,38.265 C31.1905,38.265 29.5793,36.6464 29.5793,34.6614 C29.5793,32.6764 31.1905,31.0579 33.1665,31.0579 C35.1729,31.0579 36.7537,32.6764 36.7537,34.6614 "/>
</g>

<g fill="#000000" fill-opacity="1" stroke="#000000" stroke-opacity="1" stroke-width="1" stroke-linecap="square" stroke-linejoin="miter" stroke-miterlimit="2" transform="matrix(1,0,0,1,8,8)"
>
</g>

<g fill="#194379" fill-opacity="1" stroke="none" transform="matrix(1,0,0,1,8,8)"
>
<path vector-effect="none" fill-rule="nonzero" d="M1.3376,52.2821 L0.121605,52.1294 C0.243205,51.7629 0.486404,51.4881 0.820805,51.3354 C1.1552,51.1522 1.6416,51.0605 2.28,51.0605 C2.8576,51.0605 3.3136,51.1216 3.5872,51.2132 C3.8912,51.3049 4.07361,51.4575 4.1952,51.6102 C4.3168,51.7629 4.3776,52.0683 4.3776,52.4959 L4.3776,53.6563 C4.3776,53.9922 4.40801,54.2366 4.43841,54.3892 C4.4688,54.5419 4.56,54.7252 4.6816,54.9084 L3.3744,54.9084 C3.344,54.8473 3.2832,54.7557 3.2528,54.603 C3.2224,54.5419 3.2224,54.5114 3.192,54.4809 C2.9792,54.6336 2.736,54.7557 2.4624,54.8473 C2.2192,54.9389 1.9152,54.9695 1.6416,54.9695 C1.1248,54.9695 0.729605,54.8779 0.425605,54.6641 C0.121605,54.4503 -0.0303955,54.1755 -0.0303955,53.8701 C-0.0303955,53.6563 0.0304045,53.4731 0.182405,53.2899 C0.304005,53.1372 0.516805,52.9845 0.760005,52.8929 C1.0032,52.8012 1.368,52.7402 1.824,52.6485 C2.432,52.5569 2.888,52.4653 3.1008,52.4042 L3.1008,52.3126 C3.1008,52.1294 3.04,51.9767 2.9184,51.9156 C2.7968,51.824 2.5536,51.7935 2.2192,51.7935 C1.976,51.7935 1.7936,51.824 1.672,51.8851 C1.52,51.9767 1.4288,52.0989 1.3376,52.2821 M3.1008,53.1066 C2.9184,53.1372 2.6752,53.1982 2.28,53.2593 C1.9152,53.3204 1.672,53.3815 1.5504,53.4426 C1.368,53.5342 1.2768,53.6563 1.2768,53.7785 C1.2768,53.9312 1.3376,54.0228 1.4896,54.1449 C1.6416,54.2366 1.7936,54.2976 2.0064,54.2976 C2.2496,54.2976 2.4624,54.2366 2.7056,54.1144 C2.8576,54.0228 2.9792,53.9006 3.0096,53.7785 C3.04,53.6869 3.07041,53.5342 3.07041,53.2899 L3.07041,53.1066 L3.1008,53.1066"/>
</g>

<g fill="#000000" fill-opacity="1" stroke="#000000" stroke-opacity="1" stroke-width="1" stroke-linecap="square" stroke-linejoin="miter" stroke-miterlimit="2" transform="matrix(1,0,0,1,8,8)"
>
</g>

<g fill="#194379" fill-opacity="1" stroke="none" transform="matrix(1,0,0,1,8,8)"
>
<path vector-effect="none" fill-rule="nonzero" d="M5.62403,51.1522 L6.84003,51.1522 L6.84003,51.6713 C7.26563,51.2743 7.81283,51.0605 8.39043,51.0605 C8.72483,51.0605 8.99843,51.1216 9.21123,51.2132 C9.45443,51.3049 9.63683,51.4575 9.78883,51.6713 C10.0016,51.4575 10.2448,51.3354 10.488,51.2132 C10.7312,51.1216 11.0048,51.0605 11.3088,51.0605 C11.6736,51.0605 11.9776,51.1216 12.2512,51.2438 C12.4944,51.3659 12.7072,51.5186 12.8288,51.7324 C12.92,51.8851 12.9808,52.1599 12.9808,52.5264 L12.9808,54.9389 L11.6432,54.9389 L11.6432,52.8012 C11.6432,52.4348 11.5824,52.1905 11.4912,52.0683 C11.3696,51.9156 11.1872,51.8546 10.9136,51.8546 C10.7312,51.8546 10.5488,51.8851 10.3968,51.9767 C10.2448,52.0683 10.1232,52.1905 10.032,52.3432 C9.97123,52.4959 9.91043,52.7707 9.91043,53.1066 L9.91043,54.9084 L8.57283,54.9084 L8.57283,52.8318 C8.57283,52.4653 8.54243,52.221 8.51203,52.1294 C8.45123,52.0378 8.39043,51.9462 8.29923,51.8851 C8.20803,51.824 8.05603,51.7935 7.90403,51.7935 C7.69123,51.7935 7.50883,51.824 7.35683,51.9156 C7.20483,52.0072 7.08323,52.1294 6.99203,52.2821 C6.93123,52.4348 6.90083,52.7096 6.90083,53.0456 L6.90083,54.8779 L5.56323,54.8779 L5.56323,51.1522 L5.62403,51.1522"/>
</g>

<g fill="#000000" fill-opacity="1" stroke="#000000" stroke-opacity="1" stroke-width="1" stroke-linecap="square" stroke-linejoin="miter" stroke-miterlimit="2" transform="matrix(1,0,0,1,8,8)"
>
</g>

<g fill="#194379" fill-opacity="1" stroke="none" transform="matrix(1,0,0,1,8,8)"
>
<path vector-effect="none" fill-rule="nonzero" d="M17.2064,53.7174 L18.5136,53.8701 C18.3312,54.2366 18.088,54.5114 17.7232,54.6947 C17.3584,54.8779 16.9024,54.9695 16.3552,54.9695 C15.4736,54.9695 14.8352,54.7557 14.4096,54.3282 C14.0752,53.9923 13.9232,53.5647 13.9232,53.0456 C13.9232,52.4348 14.136,51.9462 14.5616,51.5797 C14.9872,51.2133 15.5344,51.0606 16.2032,51.0606 C16.9632,51.0606 17.5408,51.2438 17.9664,51.6103 C18.392,51.9767 18.6048,52.557 18.5744,53.3204 L15.2912,53.3204 C15.2912,53.6258 15.4128,53.8396 15.6256,54.0228 C15.8384,54.1755 16.0816,54.2671 16.3856,54.2671 C16.5984,54.2671 16.7808,54.2366 16.9024,54.145 C17.0544,54.0228 17.1456,53.9007 17.2064,53.7174 M17.2976,52.7096 C17.2976,52.4348 17.176,52.1905 16.9936,52.0378 C16.8112,51.8851 16.568,51.824 16.2944,51.824 C15.9904,51.824 15.7776,51.9156 15.5648,52.0683 C15.3824,52.221 15.2912,52.4348 15.2912,52.7096 L17.2976,52.7096 M15.5952,50.6941 L16.2336,49.6252 L17.7232,49.6252 L16.416,50.6941 L15.5952,50.6941"/>
</g>

<g fill="#000000" fill-opacity="1" stroke="#000000" stroke-opacity="1" stroke-width="1" stroke-linecap="square" stroke-linejoin="miter" stroke-miterlimit="2" transform="matrix(1,0,0,1,8,8)"
>
</g>

<g fill="#194379" fill-opacity="1" stroke="none" transform="matrix(1,0,0,1,8,8)"
>
<path vector-effect="none" fill-rule="nonzero" d="M20.976,54.9084 L19.6384,54.9084 L19.6384,51.1521 L20.8848,51.1521 L20.8848,51.7018 C21.0976,51.4575 21.28,51.2743 21.4624,51.2132 C21.6448,51.1216 21.8272,51.0911 22.04,51.0911 C22.344,51.0911 22.648,51.1521 22.9216,51.2743 L22.496,52.1294 C22.2832,52.0072 22.0704,51.9767 21.888,51.9767 C21.7056,51.9767 21.5536,52.0072 21.4016,52.0988 C21.28,52.1905 21.1584,52.3126 21.0976,52.5264 C21.0368,52.7401 20.976,53.1371 20.976,53.7785 L20.976,54.9084"/>
</g>

<g fill="#000000" fill-opacity="1" stroke="#000000" stroke-opacity="1" stroke-width="1" stroke-linecap="square" stroke-linejoin="miter" stroke-miterlimit="2" transform="matrix(1,0,0,1,8,8)"
>
</g>

<g fill="#194379" fill-opacity="1" stroke="none" transform="matrix(1,0,0,1,8,8)"
>
<path vector-effect="none" fill-rule="nonzero" d="M23.4688,50.633 L23.4688,49.7168 L24.8064,49.7168 L24.8064,50.633 L23.4688,50.633 M23.4688,54.9084 L23.4688,51.1521 L24.8064,51.1521 L24.8064,54.9084 L23.4688,54.9084"/>
</g>

<g fill="#000000" fill-opacity="1" stroke="#000000" stroke-opacity="1" stroke-width="1" stroke-linecap="square" stroke-linejoin="miter" stroke-miterlimit="2" transform="matrix(1,0,0,1,8,8)"
>
</g>

<g fill="#194379" fill-opacity="1" stroke="none" transform="matrix(1,0,0,1,8,8)"
>
<path vector-effect="none" fill-rule="nonzero" d="M30.5216,52.2516 L29.2144,52.4348 C29.184,52.2516 29.0624,52.0989 28.9104,51.9767 C28.7584,51.8851 28.5456,51.8241 28.3024,51.8241 C27.968,51.8241 27.6944,51.9157 27.512,52.0684 C27.3296,52.2516 27.208,52.5264 27.208,52.9234 C27.208,53.3815 27.2992,53.6869 27.512,53.8701 C27.7248,54.0534 27.968,54.145 28.3024,54.145 C28.5456,54.145 28.7584,54.0839 28.9104,53.9923 C29.0624,53.8701 29.184,53.6869 29.2448,53.4426 L30.552,53.5953 C30.4304,54.0534 30.1568,54.3893 29.7616,54.6031 C29.3664,54.8474 28.8496,54.939 28.2112,54.939 C27.4816,54.939 26.904,54.7558 26.448,54.4198 C26.0224,54.0839 25.7792,53.5953 25.7792,52.9845 C25.7792,52.3737 25.992,51.8851 26.448,51.5187 C26.8736,51.1827 27.4816,50.9995 28.2112,50.9995 C28.8192,50.9995 29.3056,51.0911 29.6704,51.3049 C30.096,51.5492 30.3392,51.8546 30.5216,52.2516 "/>
</g>

<g fill="#000000" fill-opacity="1" stroke="#000000" stroke-opacity="1" stroke-width="1" stroke-linecap="square" stroke-linejoin="miter" stroke-miterlimit="2" transform="matrix(1,0,0,1,8,8)"
>
</g>

<g fill="#194379" fill-opacity="1" stroke="none" transform="matrix(1,0,0,1,8,8)"
>
<path vector-effect="none" fill-rule="nonzero" d="M32.4976,52.2821 L31.2816,52.1294 C31.4032,51.7629 31.6464,51.4881 31.9808,51.3354 C32.3152,51.1522 32.8016,51.0605 33.44,51.0605 C34.0176,51.0605 34.4736,51.1216 34.7472,51.2132 C35.0512,51.3049 35.2336,51.4575 35.3552,51.6102 C35.4768,51.7629 35.5376,52.0683 35.5376,52.4959 L35.5376,53.6563 C35.5376,53.9922 35.568,54.2366 35.5984,54.3892 C35.6288,54.5419 35.72,54.7252 35.8416,54.9084 L34.5344,54.9084 C34.504,54.8473 34.4432,54.7557 34.4128,54.603 C34.3824,54.5419 34.3824,54.5114 34.352,54.4809 C34.1392,54.6336 33.896,54.7557 33.6224,54.8473 C33.3792,54.9389 33.0752,54.9695 32.8016,54.9695 C32.2848,54.9695 31.8896,54.8779 31.5856,54.6641 C31.2816,54.4503 31.1296,54.1755 31.1296,53.8701 C31.1296,53.6563 31.1904,53.4731 31.3424,53.2899 C31.464,53.1372 31.6768,52.9845 31.92,52.8929 C32.1632,52.8012 32.528,52.7402 32.984,52.6485 C33.592,52.5569 34.048,52.4653 34.2608,52.4042 L34.2608,52.3126 C34.2608,52.1294 34.2,51.9767 34.0784,51.9156 C33.9568,51.824 33.7136,51.7935 33.3792,51.7935 C33.136,51.7935 32.9536,51.824 32.832,51.8851 C32.68,51.9767 32.5888,52.0989 32.4976,52.2821 M34.2912,53.1066 C34.1088,53.1372 33.8656,53.1982 33.4704,53.2593 C33.1056,53.3204 32.8624,53.3815 32.7408,53.4426 C32.5584,53.5342 32.4672,53.6563 32.4672,53.7785 C32.4672,53.9312 32.528,54.0228 32.68,54.1449 C32.832,54.2366 32.984,54.2976 33.1968,54.2976 C33.44,54.2976 33.6528,54.2366 33.896,54.1144 C34.048,54.0228 34.1696,53.9006 34.2,53.7785 C34.2304,53.6869 34.2608,53.5342 34.2608,53.2899 L34.2608,53.1066 L34.2912,53.1066"/>
</g>

<g fill="#000000" fill-opacity="1" stroke="#000000" stroke-opacity="1" stroke-width="1" stroke-linecap="square" stroke-linejoin="miter" stroke-miterlimit="2" transform="matrix(1,0,0,1,8,8)"
>
</g>

<g fill="#194379" fill-opacity="1" stroke="none" transform="matrix(1,0,0,1,8,8)"
>
<path vector-effect="none" fill-rule="nonzero" d="M0.303955,42.3881 L2.15835,42.3881 L2.15835,43.1516 C2.82715,42.5714 3.61755,42.266 4.52955,42.266 C5.01595,42.266 5.44156,42.3271 5.80635,42.4798 C6.17115,42.6325 6.47515,42.8462 6.68795,43.1516 C7.02236,42.8462 7.38716,42.6325 7.78235,42.4798 C8.17756,42.3271 8.57275,42.266 9.02876,42.266 C9.57596,42.266 10.0624,42.3576 10.4576,42.5103 C10.8528,42.663 11.1264,42.9073 11.3392,43.2432 C11.4912,43.4875 11.552,43.854 11.552,44.4037 L11.552,47.9462 L9.51515,47.9462 L9.51515,44.7702 C9.51515,44.2205 9.45436,43.854 9.30235,43.7013 C9.11996,43.4875 8.81595,43.3959 8.45115,43.3959 C8.17755,43.3959 7.90395,43.457 7.66076,43.5792 C7.41755,43.7013 7.23515,43.8845 7.11355,44.1288 C6.99195,44.3732 6.96155,44.7396 6.96155,45.2893 L6.96155,47.9462 L4.92476,47.9462 L4.92476,44.8923 C4.92476,44.3426 4.89435,44.0067 4.80315,43.854 C4.74235,43.7013 4.62075,43.5792 4.46875,43.5181 C4.31675,43.457 4.10395,43.3959 3.86075,43.3959 C3.55675,43.3959 3.28315,43.457 3.00955,43.5792 C2.76635,43.7013 2.58396,43.8845 2.46236,44.0983 C2.34076,44.3426 2.31035,44.7091 2.31035,45.2282 L2.31035,47.9156 L0.303955,47.9156 L0.303955,42.3881"/>
</g>

<g fill="#000000" fill-opacity="1" stroke="#000000" stroke-opacity="1" stroke-width="1" stroke-linecap="square" stroke-linejoin="miter" stroke-miterlimit="2" transform="matrix(1,0,0,1,8,8)"
>
</g>

<g fill="#194379" fill-opacity="1" stroke="none" transform="matrix(1,0,0,1,8,8)"
>
<path vector-effect="none" fill-rule="nonzero" d="M17.9968,46.1743 L20.0032,46.4186 C19.7296,46.9683 19.3344,47.3653 18.7872,47.6402 C18.24,47.915 17.5408,48.0677 16.6896,48.0677 C15.352,48.0677 14.3792,47.7623 13.7408,47.121 C13.224,46.6019 12.9808,45.9911 12.9808,45.1971 C12.9808,44.2809 13.3152,43.548 13.984,43.0289 C14.6528,42.5097 15.4736,42.2349 16.5072,42.2349 C17.632,42.2349 18.544,42.5097 19.2128,43.0594 C19.8816,43.6091 20.1856,44.4336 20.1552,45.5636 L15.048,45.5636 C15.048,45.9911 15.2304,46.327 15.5344,46.5713 C15.8384,46.8156 16.2336,46.9378 16.6896,46.9378 C16.9936,46.9378 17.2672,46.8767 17.48,46.7546 C17.7232,46.663 17.8752,46.4492 17.9968,46.1743 M18.088,44.6779 C18.088,44.2504 17.936,43.945 17.632,43.7007 C17.3584,43.4869 16.9936,43.3648 16.568,43.3648 C16.112,43.3648 15.7472,43.4869 15.4736,43.7007 C15.2,43.945 15.048,44.2504 15.048,44.6474 L18.088,44.6474 L18.088,44.6779"/>
</g>

<g fill="#000000" fill-opacity="1" stroke="#000000" stroke-opacity="1" stroke-width="1" stroke-linecap="square" stroke-linejoin="miter" stroke-miterlimit="2" transform="matrix(1,0,0,1,8,8)"
>
</g>

<g fill="#194379" fill-opacity="1" stroke="none" transform="matrix(1,0,0,1,8,8)"
>
<path vector-effect="none" fill-rule="nonzero" d="M21.0367,46.3571 L23.0735,46.1433 C23.1647,46.4181 23.3471,46.6319 23.5903,46.7846 C23.8639,46.9373 24.2287,46.9984 24.6847,46.9984 C25.2015,46.9984 25.5967,46.9373 25.8703,46.7846 C26.0527,46.693 26.1439,46.5708 26.1439,46.3876 C26.1439,46.2654 26.0831,46.1738 25.9919,46.1128 C25.9007,46.0517 25.6575,45.9906 25.3231,45.9295 C23.6815,45.6547 22.6479,45.4409 22.2223,45.2271 C21.6143,44.9218 21.3103,44.5248 21.3103,43.9751 C21.3103,43.4864 21.5839,43.0894 22.1007,42.7535 C22.6175,42.4176 23.4383,42.2649 24.5327,42.2649 C25.5663,42.2649 26.3567,42.3871 26.8735,42.6314 C27.3903,42.8757 27.7247,43.2421 27.9375,43.7307 L26.0223,43.9751 C25.9311,43.7613 25.7791,43.5781 25.5663,43.4864 C25.3231,43.3643 25.0191,43.3032 24.5935,43.3032 C24.0463,43.3032 23.6815,43.3643 23.4383,43.4559 C23.2863,43.517 23.1951,43.6391 23.1951,43.7613 C23.1951,43.8529 23.2559,43.9445 23.4079,44.0361 C23.5903,44.1277 24.2287,44.2804 25.2927,44.4637 C26.3567,44.6469 27.1167,44.8607 27.5423,45.105 C27.9679,45.3798 28.1807,45.7158 28.1807,46.2044 C28.1807,46.7235 27.8767,47.1511 27.2991,47.5175 C26.7215,47.884 25.8399,48.0672 24.7151,48.0672 C23.6815,48.0672 22.8607,47.9145 22.2527,47.6091 C21.6143,47.3038 21.2191,46.8762 21.0367,46.3571 "/>
</g>

<g fill="#000000" fill-opacity="1" stroke="#000000" stroke-opacity="1" stroke-width="1" stroke-linecap="square" stroke-linejoin="miter" stroke-miterlimit="2" transform="matrix(1,0,0,1,8,8)"
>
</g>

<g fill="#194379" fill-opacity="1" stroke="none" transform="matrix(1,0,0,1,8,8)"
>
<path vector-effect="none" fill-rule="nonzero" d="M29.4879,45.0744 C29.4879,44.5858 29.6399,44.1277 29.9743,43.6697 C30.3087,43.2116 30.7647,42.8757 31.3727,42.6314 C31.9807,42.3871 32.6495,42.2649 33.4095,42.2649 C34.5647,42.2649 35.5071,42.5397 36.2671,43.0894 C36.9967,43.6391 37.3615,44.311 37.3615,45.1661 C37.3615,45.9906 36.9967,46.693 36.2367,47.2427 C35.4767,47.7924 34.5647,48.0672 33.4095,48.0672 C32.7103,48.0672 32.0415,47.9451 31.4031,47.7313 C30.7647,47.487 30.2783,47.1511 29.9439,46.7235 C29.6703,46.2655 29.4879,45.7158 29.4879,45.0744 M31.5551,45.1661 C31.5551,45.7158 31.7375,46.1433 32.1023,46.4181 C32.4671,46.7235 32.8927,46.8457 33.4399,46.8457 C33.9567,46.8457 34.4127,46.693 34.7775,46.4181 C35.1423,46.1128 35.3247,45.6852 35.3247,45.1355 C35.3247,44.5858 35.1423,44.1888 34.7775,43.8834 C34.4127,43.5781 33.9871,43.4559 33.4399,43.4559 C32.9231,43.4559 32.4671,43.6086 32.1023,43.8834 C31.7375,44.1888 31.5551,44.6164 31.5551,45.1661 "/>
</g>

<g fill="#000000" fill-opacity="1" stroke="#000000" stroke-opacity="1" stroke-width="1" stroke-linecap="square" stroke-linejoin="miter" stroke-miterlimit="2" transform="matrix(1,0,0,1,8,8)"
>
</g>

<g fill="#171a1a" fill-opacity="1" stroke="none" transform="matrix(1,0,0,1,8,8)"
>
<path vector-effect="none" fill-rule="evenodd" d="M35.72,28.0344 L35.9328,28.0344 L36.2672,28.9811 L36.6016,28.0344 L36.8144,28.0344 L36.8144,29.1644 L36.6624,29.1644 L36.6624,28.4925 C36.6624,28.462 36.6624,28.4314 36.6624,28.3703 C36.6624,28.3093 36.6624,28.2482 36.6624,28.1871 L36.328,29.1338 L36.176,29.1338 L35.8416,28.1871 L35.8416,28.2177 C35.8416,28.2482 35.8416,28.2787 35.8416,28.3398 C35.8416,28.4009 35.8416,28.4314 35.8416,28.462 L35.8416,29.1338 L35.6896,29.1338 L35.6896,28.0344 L35.72,28.0344"/>
</g>

<g fill="#000000" fill-opacity="1" stroke="#000000" stroke-opacity="1" stroke-width="1" stroke-linecap="square" stroke-linejoin="miter" stroke-miterlimit="2" transform="matrix(1,0,0,1,8,8)"
>
</g>

<g fill="#171a1a" fill-opacity="1" stroke="none" transform="matrix(1,0,0,1,8,8)"
>
<path vector-effect="none" fill-rule="evenodd" d="M37.5744,28.5536 C37.6352,28.5536 37.696,28.5536 37.7568,28.523 C37.7872,28.4925 37.8176,28.4314 37.8176,28.3704 C37.8176,28.2787 37.7872,28.2482 37.7264,28.2177 C37.696,28.1871 37.6656,28.1871 37.6048,28.1871 L37.24,28.1871 L37.24,28.5841 L37.5744,28.5841 L37.5744,28.5536 M37.0576,28.0344 L37.5744,28.0344 C37.6656,28.0344 37.7264,28.0344 37.7872,28.065 C37.8784,28.126 37.9392,28.2177 37.9392,28.3398 C37.9392,28.4009 37.9392,28.462 37.9088,28.4925 C37.8784,28.523 37.848,28.5841 37.7872,28.5841 C37.8176,28.6147 37.8784,28.6147 37.8784,28.6452 C37.9088,28.6757 37.9088,28.7368 37.9088,28.7979 L37.9088,28.9506 C37.9088,28.9811 37.9088,29.0117 37.9088,29.0422 C37.9088,29.0728 37.9392,29.1033 37.9696,29.1033 L37.9696,29.1338 L37.7872,29.1338 L37.7872,29.1033 C37.7872,29.0728 37.7872,29.0728 37.7872,29.0117 L37.7872,28.8284 C37.7872,28.7674 37.7568,28.7063 37.696,28.6757 C37.6656,28.6757 37.6352,28.6452 37.544,28.6452 L37.2096,28.6452 L37.2096,29.1338 L37.0576,29.1338 L37.0576,28.0344"/>
</g>

<g fill="#000000" fill-opacity="1" stroke="#000000" stroke-opacity="1" stroke-width="1" stroke-linecap="square" stroke-linejoin="miter" stroke-miterlimit="2" transform="matrix(1,0,0,1,8,8)"
>
</g>

<g fill="#000000" fill-opacity="1" stroke="#000000" stroke-opacity="1" stroke-width="1" stroke-linecap="square" stroke-linejoin="miter" stroke-miterlimit="2" transform="matrix(1,0,0,1,8,8)"
>
</g>

<g fill="#000000" fill-opacity="1" stroke="#000000" stroke-opacity="1" stroke-width="1" stroke-linecap="square" stroke-linejoin="miter" stroke-miterlimit="2" transform="matrix(1,0,0,1,0,0)"
>
</g>

<g fill="#000000" fill-opacity="1" stroke="#000000" stroke-opacity="1" stroke-width="1" stroke-linecap="square" stroke-linejoin="miter" stroke-miterlimit="2" transform="matrix(1,0,0,1,0,0)"
>
</g>

<g fill="#000000" fill-opacity="1" stroke="#000000" stroke-opacity="1" stroke-width="1" stroke-linecap="square" stroke-linejoin="miter" stroke-miterlimit="2" transform="matrix(1,0,0,1,0,0)"
>
</g>

<g fill="#000000" fill-opacity="1" stroke="#000000" stroke-opacity="1" stroke-width="1" stroke-linecap="square" stroke-linejoin="miter" stroke-miterlimit="2" transform="matrix(1,0,0,1,8,8)"
>
</g>

<g fill="#000000" fill-opacity="1" stroke="#000000" stroke-opacity="1" stroke-width="1" stroke-linecap="square" stroke-linejoin="miter" stroke-miterlimit="2" transform="matrix(1,0,0,1,8,8)"
>
</g>

<g fill="#000000" fill-opacity="1" stroke="#000000" stroke-opacity="1" stroke-width="1" stroke-linecap="square" stroke-linejoin="miter" stroke-miterlimit="2" transform="matrix(1,0,0,1,0,0)"
>
</g>

<g fill="#000000" fill-opacity="1" stroke="#000000" stroke-opacity="1" stroke-width="1" stroke-linecap="square" stroke-linejoin="miter" stroke-miterlimit="2" transform="matrix(1,0,0,1,0,0)"
>
</g>

<g fill="#000000" fill-opacity="1" stroke="#000000" stroke-opacity="1" stroke-width="1" stroke-linecap="square" stroke-linejoin="miter" stroke-miterlimit="2" transform="matrix(1,0,0,1,0,0)"
>
</g>

<g fill="#000000" fill-opacity="1" stroke="#000000" stroke-opacity="1" stroke-width="1" stroke-linecap="square" stroke-linejoin="miter" stroke-miterlimit="2" transform="matrix(1,0,0,1,0,0)"
>
</g>

<g fill="#000000" fill-opacity="1" stroke="#000000" stroke-opacity="1" stroke-width="1" stroke-linecap="square" stroke-linejoin="miter" stroke-miterlimit="2" transform="matrix(1,0,0,1,8,8)"
>
</g>

<g fill="#000000" fill-opacity="1" stroke="#000000" stroke-opacity="1" stroke-width="1" stroke-linecap="square" stroke-linejoin="miter" stroke-miterlimit="2" transform="matrix(1,0,0,1,8,8)"
>
</g>

<g fill="#000000" fill-opacity="1" stroke="#000000" stroke-opacity="1" stroke-width="1" stroke-linecap="square" stroke-linejoin="miter" stroke-miterlimit="2" transform="matrix(1,0,0,1,8,8)"
>
</g>

<g fill="#000000" fill-opacity="1" stroke="#000000" stroke-opacity="1" stroke-width="1" stroke-linecap="square" stroke-linejoin="miter" stroke-miterlimit="2" transform="matrix(1,0,0,1,0,0)"
>
</g>

<g fill="#000000" fill-opacity="1" stroke="#000000" stroke-opacity="1" stroke-width="1" stroke-linecap="square" stroke-linejoin="miter" stroke-miterlimit="2" transform="matrix(1,0,0,1,0,0)"
>
</g>

<g fill="#000000" fill-opacity="1" stroke="#000000" stroke-opacity="1" stroke-width="1" stroke-linecap="square" stroke-linejoin="miter" stroke-miterlimit="2" transform="matrix(1,0,0,1,0,0)"
>
</g>

<g fill="#000000" fill-opacity="1" stroke="#000000" stroke-opacity="1" stroke-width="1" stroke-linecap="square" stroke-linejoin="miter" stroke-miterlimit="2" transform="matrix(1,0,0,1,0,0)"
>
</g>

<g fill="#000000" fill-opacity="1" stroke="#000000" stroke-opacity="1" stroke-width="1" stroke-linecap="square" stroke-linejoin="miter" stroke-miterlimit="2" transform="matrix(1,0,0,1,0,0)"
>
</g>

<g fill="#000000" fill-opacity="1" stroke="#000000" stroke-opacity="1" stroke-width="1" stroke-linecap="square" stroke-linejoin="miter" stroke-miterlimit="2" transform="matrix(1,0,0,1,0,0)"
>
</g>
</g>
</svg>
